<svg width="1600" height="720" viewBox="0 0 1600 720" fill="none" xmlns="http://www.w3.org/2000/svg" role="img" aria-labelledby="title desc">
  <title id="title">DATA - fundo topografico vetorizado</title>
  <desc id="desc">Curvas de nivel vetoriais inspiradas em relevo topografico para uso como fundo do site.</desc>
  <g fill="none" stroke-linecap="round" stroke-linejoin="round">
    <path d="M64 454C142 364 236 354 315 238C360 172 397 74 463 76C524 78 554 178 625 246C733 351 863 359 1005 272C1083 224 1118 128 1175 125C1234 122 1267 222 1345 267C1411 305 1500 320 1546 387C1597 461 1515 521 1421 507C1349 496 1296 455 1217 453C1125 451 1080 521 988 554C888 590 793 557 715 508C650 468 591 416 509 412C425 408 375 477 281 489C191 501 88 513 64 454Z" stroke="#071426" stroke-width="4"/>
    <path d="M108 439C185 372 253 362 328 258C371 199 403 111 459 112C513 113 543 196 612 264C718 369 854 379 990 295C1071 245 1112 165 1173 163C1225 161 1258 239 1328 280C1391 317 1472 334 1502 390C1534 450 1474 483 1405 474C1340 466 1288 427 1212 428C1126 429 1080 494 992 523C896 555 812 524 733 477C662 435 603 385 515 382C431 379 383 443 294 457C215 469 135 479 108 439Z" stroke="#007EA7" stroke-width="3.5"/>
    <path d="M151 422C218 377 276 359 339 278C383 221 410 146 461 147C509 148 537 215 601 282C704 390 844 400 976 318C1058 267 1111 201 1170 201C1215 201 1247 256 1311 293C1368 326 1441 346 1458 391C1478 444 1430 452 1386 445C1326 436 1278 401 1209 403C1128 406 1084 466 998 491C908 517 831 491 752 446C675 402 615 357 520 354C437 352 391 409 306 425C242 437 178 446 151 422Z" stroke="#071426" stroke-width="3.4"/>
    <path d="M196 400C250 376 301 354 353 296C397 247 419 181 462 182C506 183 532 232 590 300C689 416 835 421 963 341C1047 288 1112 237 1167 239C1206 240 1238 273 1293 305C1344 334 1408 357 1412 392C1418 434 1387 420 1366 416C1314 406 1266 379 1206 380C1131 382 1087 436 1004 460C918 484 851 460 771 415C690 370 628 331 526 326C444 322 399 375 318 391C269 401 221 410 196 400Z" stroke="#007EA7" stroke-width="3.2"/>
    <path d="M246 373C287 363 331 340 371 316C414 281 429 218 466 218C503 218 526 251 580 319C675 438 824 445 949 365C1034 310 1114 275 1163 277C1199 279 1228 292 1275 317C1320 341 1373 367 1364 393C1354 421 1342 392 1324 386C1281 371 1256 358 1200 357C1134 356 1090 408 1011 429C932 450 868 430 793 384C704 330 641 304 532 298C450 293 411 343 333 361C302 368 272 376 246 373Z" stroke="#071426" stroke-width="3.1"/>
    <path d="M303 340C333 334 356 326 391 333C426 340 444 254 468 253C496 252 523 276 571 338C661 455 812 471 934 389C1019 332 1117 314 1159 316C1198 318 1224 314 1254 328C1286 343 1315 371 1306 385C1295 402 1275 337 1195 333C1139 331 1097 380 1017 397C951 410 889 397 816 357C719 305 653 277 538 270C459 266 421 312 347 333C333 337 318 341 303 340Z" stroke="#007EA7" stroke-width="3"/>
    <path d="M365 299C395 302 425 311 446 289C460 274 461 288 473 290C493 294 518 300 561 357C643 466 798 498 918 414C1008 351 1121 352 1154 354C1200 356 1227 329 1233 340C1243 359 1218 380 1186 382C1140 386 1103 354 1027 368C962 380 906 371 840 335C736 279 667 251 546 244C473 239 435 276 365 299Z" stroke="#071426" stroke-width="2.8"/>
    <path d="M419 252C445 261 463 259 478 263C498 269 516 327 550 376C625 484 783 526 900 440C996 369 1112 389 1147 393C1195 398 1189 363 1168 362C1132 361 1113 332 1038 339C979 345 925 348 862 314C752 255 679 225 555 219C499 216 464 230 419 252Z" stroke="#007EA7" stroke-width="2.7"/>
    <path d="M458 201C483 205 504 223 524 258C543 292 552 341 584 389C651 488 783 493 880 424C965 363 1074 356 1139 429" stroke="#071426" stroke-width="2.6"/>
    <path d="M478 164C503 171 525 198 542 233C560 270 570 315 601 363C662 459 772 462 858 402C933 350 1038 330 1118 385" stroke="#007EA7" stroke-width="2.5"/>
    <path d="M497 128C526 137 546 166 563 200C583 240 592 285 621 334C676 428 760 428 837 377C902 334 991 316 1078 345" stroke="#071426" stroke-width="2.4"/>
    <path d="M518 96C545 107 563 136 581 173C602 214 612 257 641 304C687 381 753 389 817 350C870 317 940 302 1019 314" stroke="#007EA7" stroke-width="2.3"/>
    <path d="M546 76C565 91 581 116 599 153C621 197 633 238 660 277C697 331 752 343 799 319C837 299 889 287 952 293" stroke="#071426" stroke-width="2.2"/>
  </g>
</svg>
